<?xml version="1.0" encoding="utf-8"?>
<!-- Generator: Adobe Illustrator 25.2.1, SVG Export Plug-In . SVG Version: 6.00 Build 0)  -->
<svg version="1.1" id="Capa_1" xmlns="http://www.w3.org/2000/svg" xmlns:xlink="http://www.w3.org/1999/xlink" x="0px" y="0px"
	 viewBox="0 0 37 18" style="enable-background:new 0 0 37 18;" xml:space="preserve">
<style type="text/css">
	.st0{fill:#020202;}
</style>
<path class="st0" d="M33.7,8.3c-0.1,0-0.2,0-0.3,0l0,0c-3.2-3.1-16.1-13.6-31-0.1l0,0c0,0-0.1,0-0.1,0c-0.5,0-0.8,0.4-0.8,0.8
	S1.8,10,2.3,10c0.1,0,0.2,0,0.3-0.1l0,0c3.1,3.1,15.3,13,30.7,0v0c0.1,0.1,0.2,0.1,0.4,0.1c0.5,0,0.8-0.4,0.8-0.8
	C34.5,8.7,34.1,8.3,33.7,8.3z M25,5.7c4.3,1.1,7.1,2.8,7.9,3.1v0c0,0.1,0,0.2,0,0.3c0,0.1,0,0.1,0,0.2c-3.2,2.4-6.3,3.9-9.2,4.7
	c1.2-0.9,2.1-2.9,2.1-5.1C25.7,7.8,25.5,6.7,25,5.7z M23.1,5.3c0.8,1,1.4,2.5,1.3,4.2c-0.1,2.2-1.9,4.2-3.5,5.1
	c-2.1,0.3-4.1,0.3-5.9,0c-1.8-0.8-3.6-3.1-3.6-5.5c0-1.5,0.5-2.9,1.3-3.9l0,0C14,5,15.2,4.9,16.4,4.8c-1,0.3-1.8,0.8-2.4,1.5
	c0.3-0.3,0.7-0.5,1.2-0.5c0.9,0,1.6,0.7,1.6,1.5s-0.7,1.5-1.6,1.5c-0.9,0-1.6-0.7-1.6-1.5c0-0.4,0.1-0.7,0.4-0.9
	c-0.7,0.8-1.2,1.9-1.2,3.1c0,2.6,2.2,4.8,5,4.8s5-2.1,5-4.8c0-2.2-1.5-4-3.5-4.6C20.6,4.9,21.9,5.1,23.1,5.3 M10.8,5.7
	c-0.5,1-0.8,2.2-0.8,3.5c0,2,0.8,3.8,2,4.9c-4.6-1.3-7.8-3.8-8.8-4.8l0,0c0,0,0-0.1,0-0.1c0-0.2,0-0.3-0.1-0.4l0,0
	C5.7,7.2,8.3,6.3,10.8,5.7 M10.8,5.7c-0.5,1-0.8,2.2-0.8,3.5"/>
</svg>
